<svg id="_0237_couple_2" xmlns="http://www.w3.org/2000/svg" viewBox="0 0 500 500" data-imageid="couple-2-95" imageName="Couple 2" class="illustrations_image" style="width: 188px;"><defs><style>.cls-1_couple-2-95{fill:#f4a28c;}.cls-2_couple-2-95{fill:#a5a5a5;}.cls-3_couple-2-95{opacity:.03;}.cls-3_couple-2-95,.cls-4_couple-2-95{fill:#000001;}.cls-5_couple-2-95{fill:#e6e6e6;}.cls-6_couple-2-95{fill:#ce8172;opacity:.31;}.cls-7_couple-2-95{fill:#fff;opacity:.46;}.cls-8_couple-2-95{fill:none;opacity:.3;}.cls-9_couple-2-95{fill:#24285b;}.cls-4_couple-2-95{opacity:.08;}.cls-10_couple-2-95{fill:#ffd200;}.cls-11_couple-2-95{fill:#68e1fd;}</style></defs><g id="bg_couple-2-95" class="cls-8_couple-2-95"><path class="cls-5_couple-2-95" d="m60.99,144.77c0,68.16,54.72,114.79,137.55,185.38,14.08,12,30.02,25.58,46.59,40.08,2.18,1.91,4.99,2.97,7.9,2.97,2.91,0,5.72-1.05,7.9-2.97,16.57-14.49,32.52-28.08,46.59-40.07,82.84-70.59,137.56-117.23,137.56-185.38,0-63.09-43.86-110.66-102.03-110.66-20.84,0-39.95,6.6-56.79,19.63-16.15,12.49-26.9,28.39-33.23,39.96-6.33-11.57-17.08-27.47-33.23-39.96-16.84-13.03-35.95-19.63-56.79-19.63-58.16,0-102.03,47.57-102.03,110.66Z"/></g><ellipse id="sd_couple-2-95" class="cls-3_couple-2-95" cx="251.45" cy="436.69" rx="229.94" ry="29.2"/><g id="boy_couple-2-95"><path class="cls-9_couple-2-95" d="m450.88,386.75l-1.6-.22c.03-.22,2.92-22.63-7.21-59.31-10.21-36.99-8.24-96.71-8.21-97.31l1.61.06c-.02.6-1.99,60.08,8.16,96.83,10.23,37.03,7.28,59.73,7.25,59.96Z"/><path class="cls-11_couple-2-95 targetColor" d="m246.72,255.01s-45.9,52.9-41.25,96.55c4.65,43.65,41.25,74.75,41.25,74.75h15.63s-45.44-76.53-2.5-112.67c42.93-36.13-13.13-58.62-13.13-58.62Z" style="fill: rgb(220, 38, 38);"/><path class="cls-7_couple-2-95" d="m246.72,255.01s-45.9,52.9-41.25,96.55c4.65,43.65,41.25,74.75,41.25,74.75h15.63s-45.44-76.53-2.5-112.67c42.93-36.13-13.13-58.62-13.13-58.62Z"/><path class="cls-1_couple-2-95" d="m346.01,192.09s-2.6,13.44-7.29,21.54c-1.9,3.28-6.18,4.41-9.43,2.46-4.04-2.42-8.8-6.87-8.29-14.24l-.66-12.62s-.14-7.92,8.81-11.15c8.94-3.22,18.85,5.9,16.86,14.01Z"/><polygon class="cls-1_couple-2-95" points="320.46 191.52 301.54 232.19 324.7 241.02 329.17 207.88 320.46 191.52"/><path class="cls-9_couple-2-95" d="m342.59,191.71c-2.33-.53-6.55-1.75-11.87-4.39,0,0,2.48,6.9-3.43,12.05-5.91,5.14-11.81.49-11.81.49l5.03-16.85c1.31-4.96,5.22-8.82,10.2-10.02,2.04-.49,4.26-.92,6.43-1.15,5.42-.57,11.63,4.71,16.93,2.67,2.32-.89,4.77,1.04,4.44,3.51-.7,5.36-3.93,13.19-11.69,14.02-1.42.15-2.85-.02-4.24-.34Z"/><path class="cls-1_couple-2-95" d="m328.81,199.38s1.35-5.1-2.57-5.79c-3.92-.69-5.91,6.66-.93,8.82l3.5-3.02Z"/><path class="cls-1_couple-2-95" d="m343.94,200.48l2.22,6.12c.55,1.51-.66,3.08-2.26,2.93l-5.3-.49,5.34-8.56Z"/><path class="cls-6_couple-2-95" d="m328.5,215.17s-4.14-2.15-6.4-6.79c0,0-1.91,7.99,4.54,18.25l1.86-11.46Z"/><path class="cls-11_couple-2-95 targetColor" d="m301.54,232.19l23.16,8.82s43.06,27.35,28.45,71.02c-14.61,43.67-34.43,96.6-34.43,96.6l-65.65-9.91s-64.04-173.37,48.47-166.53Z" style="fill: rgb(220, 38, 38);"/><path class="cls-9_couple-2-95" d="m253.89,397.99l106.44-36.03c14.18-4.8,29.58,2.71,34.53,16.83l15.07,42.99-14.99,3.99-12.98-25.81c-3.96-7.87-14.03-10.35-21.17-5.17-28.85,20.94-95.27,61.74-106.89,3.2Z"/><path class="cls-9_couple-2-95" d="m334.26,397.99s57.66-3.27,62.15,13.22c4.5,16.5-98.18,15.6-98.18,15.6l36.03-28.83Z"/><path class="cls-1_couple-2-95" d="m346.01,420.27c.86-1.87,2.72-3.08,4.78-3.12,8.51-.15,29.89.39,27.63,9.67-2.07,8.5-19.92,3.82-29.24.75-3.03-1-4.5-4.41-3.17-7.3h0Z"/><path class="cls-4_couple-2-95" d="m281.49,266.62s-30.84,24.67-8.65,67.96c22.18,43.29,14.5,52.09,14.5,52.09l38.35-12.98-3.34-37.68-39.13-69.39h-1.72Z"/><path class="cls-1_couple-2-95" d="m396.56,425.35l1.09,3.51c.77,2.49,3.08,4.19,5.69,4.19h15.06c2.94,0,4.31-3.68,2.06-5.57-2.44-2.03-6.27-4.11-12.26-5.23l-11.63,3.1Z"/><path class="cls-11_couple-2-95 targetColor" d="m285.84,256.75c5.56-10.35,18.02-14.82,28.83-10.2,11.79,5.04,24.65,16.51,24.39,42.58-.28,27.4,4.77,48.84,9.14,62.18,2.73,8.33,12.37,12.11,20.07,7.93l61.17-33.22,8.59,16.06-73.9,49.79c-10.06,6.78-23.49,5.53-32.13-2.98-26.06-25.67-73.14-81.93-46.16-132.14Z" style="fill: rgb(220, 38, 38);"/><path class="cls-7_couple-2-95" d="m285.84,256.75c5.56-10.35,18.02-14.82,28.83-10.2,11.79,5.04,24.65,16.51,24.39,42.58-.28,27.4,4.77,48.84,9.14,62.18,2.73,8.33,12.37,12.11,20.07,7.93l61.17-33.22,8.59,16.06-73.9,49.79c-10.06,6.78-23.49,5.53-32.13-2.98-26.06-25.67-73.14-81.93-46.16-132.14Z"/><path class="cls-1_couple-2-95" d="m429.44,326.01s19.42-13.21,25.14,0c5.72,13.21-16.56,16.06-16.56,16.06l-8.59-16.06Z"/><path class="cls-1_couple-2-95" d="m246.72,426.31s17.78-11,22.79-4.06c5.01,6.94-1.57,11.18-22.79,4.06Z"/><circle class="cls-5_couple-2-95" cx="433.05" cy="184.64" r="52.09"/><path class="cls-2_couple-2-95" d="m446.93,162.55c-3.1.06-5.92,1.1-8.39,3.08-2.37,1.9-3.92,4.3-4.83,6.04-.97-1.7-2.62-4.04-5.06-5.85-2.54-1.89-5.4-2.82-8.5-2.76-8.65.17-15.04,7.37-14.86,16.75.19,10.14,8.47,16.92,20.99,27.18,2.13,1.74,4.54,3.72,7.04,5.83.33.28.75.43,1.18.42s.85-.17,1.17-.46c2.42-2.2,4.76-4.27,6.82-6.09,12.12-10.73,20.12-17.83,19.93-27.96-.18-9.38-6.84-16.33-15.49-16.17Z"/></g><g id="girl_couple-2-95"><path class="cls-9_couple-2-95" d="m89.46,398.97c-.07-.21-7.45-21.88-4.75-60.2,2.68-38.03-11.02-95.95-11.16-96.53l1.57-.37c.14.58,13.9,58.73,11.2,97.01-2.67,37.96,4.6,59.35,4.67,59.56l-1.52.53Z"/><circle class="cls-5_couple-2-95" cx="66.95" cy="197.32" r="52.09"/><path class="cls-2_couple-2-95" d="m36.99,197.33c1.82,9.98,11.07,15.34,25.07,23.47,2.38,1.38,5.07,2.94,7.89,4.62.37.22.81.3,1.24.22s.81-.31,1.08-.64c2.04-2.56,4.01-4.98,5.75-7.11,10.24-12.54,17.01-20.82,15.2-30.8-1.68-9.23-9.37-15.03-17.88-13.48-3.05.56-5.67,2.03-7.79,4.39-2.03,2.26-3.18,4.87-3.8,6.73-1.23-1.52-3.23-3.57-5.93-4.96-2.81-1.46-5.78-1.92-8.83-1.36-8.51,1.55-13.66,9.68-11.98,18.91Z"/><path class="cls-1_couple-2-95" d="m179.64,323.22l-30.15,44.25-59.51-15.54s-24.87.47-21.1,10.83c3.77,10.36,23.07,1.88,23.07,1.88l75.44,28.15,39.83-27.2-27.58-42.37Z"/><path class="cls-6_couple-2-95" d="m179.64,323.22l-30.15,44.25-59.51-15.54s-24.87.47-21.1,10.83c3.77,10.36,23.07,1.88,23.07,1.88l75.44,28.15,39.83-27.2-27.58-42.37Z"/><path class="cls-10_couple-2-95" d="m176.76,230.42s-26.32,35.82.39,46.69c26.71,10.88,29-28.76,29-28.76l-12.05-26.61-17.34,8.68Z"/><path class="cls-1_couple-2-95" d="m169.99,206.34s.5,13.47,3.85,22.05c1.36,3.48,5.34,5.23,8.8,3.82,4.3-1.75,9.6-5.36,10.21-12.61l2.54-12.18s1.32-7.69-6.89-12.17c-8.22-4.48-19.23,2.9-18.51,11.09Z"/><path class="cls-11_couple-2-95 targetColor" d="m183.36,257.15l22.79-8.8s40.14,5.77,50.59,53.22c10.46,47.45,0,100.54,0,100.54l-64.53-3.22s9.79-30.56-9.49-42.63c-19.28-12.06-48.61-39.79.64-99.12Z" style="fill: rgb(220, 38, 38);"/><polygon class="cls-1_couple-2-95" points="194.94 209.63 207.22 252.05 183.36 257.15 184 224.24 194.94 209.63"/><path class="cls-1_couple-2-95" d="m185.63,216.02s-.54-5.16,3.38-5.25c3.92-.09,4.75,7.37-.42,8.72l-2.95-3.47Z"/><path class="cls-1_couple-2-95" d="m170.75,214.81l-3.08,5.62c-.76,1.39.18,3.1,1.76,3.19l5.23.32-3.91-9.13Z"/><path class="cls-6_couple-2-95" d="m183.55,231.43s4.35-1.47,7.25-5.64c0,0,.66,8.06-7.16,17.07l-.08-11.43Z"/><path class="cls-10_couple-2-95" d="m166.87,186.57c-6.8,5.99-4.94,16.97,3.11,21.12,2.5,1.29,5.75,2.48,9.94,3.28,14.51,2.78,7.35,66.62,37.89,57.62,30.54-9,20.72-22.23,6.87-34.09-13.85-11.87-19.67-33.94-24.97-45.08-3.85-8.1-23.57-11.02-32.85-2.85Z"/><path class="cls-4_couple-2-95" d="m218.23,262.16s31.34,35.28,30.95,81.43c-.39,46.15-13.65,62.96-13.65,62.96l-43.33-7.65,26.03-136.74Z"/><path class="cls-9_couple-2-95" d="m257.66,397.99l-106.44-36.03c-14.18-4.8-29.58,2.71-34.53,16.83l-15.07,42.99,14.99,3.99,12.98-25.81c3.96-7.87,14.03-10.35,21.17-5.17,28.85,20.94,95.27,61.74,106.89,3.2Z"/><path class="cls-9_couple-2-95" d="m177.29,397.99s-57.66-3.27-62.15,13.22c-4.5,16.5,98.18,15.6,98.18,15.6l-36.03-28.83Z"/><path class="cls-1_couple-2-95" d="m165.54,420.27c-.86-1.87-2.72-3.08-4.78-3.12-8.51-.15-29.89.39-27.63,9.67,2.07,8.5,19.92,3.82,29.24.75,3.03-1,4.5-4.41,3.17-7.3h0Z"/><path class="cls-1_couple-2-95" d="m114.99,425.35l-1.09,3.51c-.77,2.49-3.08,4.19-5.69,4.19h-15.06c-2.94,0-4.31-3.68-2.06-5.57,2.44-2.03,6.27-4.11,12.26-5.23l11.63,3.1Z"/><path class="cls-1_couple-2-95" d="m198.76,260.37s-21.99,6.49-15.2,26.2c4.86,14.11,8.78,51.13,10.61,71.01.61,6.57-5.24,11.89-11.73,10.68l-39.24-10.33c-8.79-2.32-18.32-.41-25.13,5.62-3.67,3.24-5.84,7.21-3.06,11.46,7.09,10.83,21.21-5.65,21.21-5.65,0,0,58.37,32.95,83.8,20.71,25.42-12.24,29.55-136.99-21.24-129.7Z"/></g></svg>